# xmcd
#
# Track frame offsets:
# 150
# 15055
# 28615
# 41885
# 66112
# 90040
# 112632
# 132137
# 151872
# 165160
# 177035
# 199505
#
# Disc length: 2892 seconds
#
#
# Revision: 0
# Processed by: cddbd v1.5.2PL0 Copyright (c) Steve Scherf et al.
# Submitted via: Nero 7, 11, 10, 0 
#
DISCID=730b4a0c
DTITLE=Fender Benders - Teach Me How To Lie
DYEAR=1993
DGENRE=Blues
TTITLE0=Walking The Dog
TTITLE1=If You Don't Love Me
TTITLE2=Teach Me How To Lie
TTITLE3=Little Wing
TTITLE4=I Can Tell
TTITLE5=Split In Two
TTITLE6=Can't Judge A Book
TTITLE7=Kisses Sweeter Than Wine
TTITLE8=Wella Wella Baby
TTITLE9=Tough Enough
TTITLE10=Rain Down Tears
TTITLE11=Barefooting
EXTD=
EXTT0=Walking The Dog
EXTT1=If You Don't Love Me
EXTT2=Teach Me How To Lie
EXTT3=Little Wing
EXTT4=I Can Tell
EXTT5=Split In Two
EXTT6=Can't Judge A Book
EXTT7=Kisses Sweeter Than Wine
EXTT8=Wella Wella Baby
EXTT9=Tough Enough
EXTT10=Rain Down Tears
EXTT11=Barefooting
PLAYORDER=
